# xmcd
#
# Track frame offsets: 
#        150
#        10969
#        21100
#        30668
#        41181
#        51759
#        63785
#        75253
#        87473
#        96337
#        105187
#        116516
#        127808
#        138695
#        151147
#        161234
#        172211
#        181276
#        191328
#        202809
#        211615
#        220792
#        231048
#        240107
#        251320
#        261215
#        273503
#        284520
#        294129
#
# Disc length: 4093 seconds
#
# Revision: 0
# Processed by: cddbd v1.5PL3 Copyright (c) Steve Scherf et al.
# Submitted via: ExactAudioCopy v0.95a4
#
DISCID=820ffb1d
DTITLE=Sheb Wooley - Wild And Wooley, Big Unruly Me
DYEAR=1997
DGENRE=Country
TTITLE0=Recipe For Love
TTITLE1=I´m Too Young
TTITLE2=Magic Town
TTITLE3=Till The End Of The World
TTITLE4=Meet Mr. Lonely
TTITLE5=Sweet Chile
TTITLE6=Will I Ever
TTITLE7=Where
TTITLE8=Cherry Sweet
TTITLE9=So Close To Heaven
TTITLE10=More
TTITLE11=Careless Hands
TTITLE12=Big Ole, Good Ole Girl
TTITLE13=One Of Them Roarin´ Songs
TTITLE14=Buba Hoo Baba Dee
TTITLE15=Little Bitty Bilbo Abernathy Nathan Allen Quincy Jones
TTITLE16=Free Again
TTITLE17=The Little Girl´s Gone
TTITLE18=My Only Treasure
TTITLE19=Plenty Of Love
TTITLE20=Mississippi Twist
TTITLE21=Deep Goes M´ Love
TTITLE22=I Won´t Come Back
TTITLE23=Hootenanny Hoot
TTITLE24=Don´t Talk To Strangers
TTITLE25=Wild And Wooley, Big Unruly Me (1)
TTITLE26=That Girl Next Door
TTITLE27=It´s Almost Time
TTITLE28=Give The Ball To Willie B.
EXTD=
EXTT0=
EXTT1=
EXTT2=
EXTT3=
EXTT4=
EXTT5=
EXTT6=
EXTT7=
EXTT8=
EXTT9=
EXTT10=
EXTT11=
EXTT12=
EXTT13=
EXTT14=
EXTT15=
EXTT16=
EXTT17=
EXTT18=
EXTT19=
EXTT20=
EXTT21=
EXTT22=
EXTT23=
EXTT24=
EXTT25=
EXTT26=
EXTT27=
EXTT28=
PLAYORDER=
